<svg width="26" height="26" viewBox="0 0 26 26" fill="none" xmlns="http://www.w3.org/2000/svg">
<path d="M11.9181 10.8334H14.0847V16.25H11.9181V10.8334ZM11.917 17.3334H14.0837V19.5H11.917V17.3334Z" fill="#D5844D"/>
<path d="M14.9154 4.55004C14.5384 3.84045 13.8039 3.39954 13 3.39954C12.1962 3.39954 11.4617 3.84045 11.0847 4.55112L3.13519 19.5694C2.95879 19.8992 2.87141 20.2693 2.88167 20.6431C2.89193 21.017 2.99947 21.3817 3.19369 21.7014C3.38512 22.0224 3.65697 22.2881 3.98241 22.472C4.30786 22.6559 4.67564 22.7517 5.04944 22.75H20.9506C21.7176 22.75 22.412 22.3579 22.8074 21.7014C23.0014 21.3816 23.1087 21.0169 23.119 20.6431C23.1292 20.2693 23.042 19.8993 22.8659 19.5694L14.9154 4.55004ZM5.04944 20.5834L13 5.56512L20.956 20.5834H5.04944Z" fill="#D5844D"/>
</svg>
