<svg width="19" height="19" viewBox="0 0 19 19" fill="none" xmlns="http://www.w3.org/2000/svg">
<path d="M8.7088 7.91667H10.2921V11.875H8.7088V7.91667ZM8.70801 12.6667H10.2913V14.25H8.70801V12.6667Z" fill="#D5844D"/>
<path d="M10.8999 3.325C10.6244 2.80646 10.0877 2.48425 9.50024 2.48425C8.91283 2.48425 8.37608 2.80646 8.10058 3.32579L2.29133 14.3007C2.16242 14.5417 2.09856 14.8121 2.10606 15.0853C2.11356 15.3586 2.19215 15.6251 2.33408 15.8587C2.47396 16.0933 2.67263 16.2874 2.91045 16.4218C3.14827 16.5562 3.41704 16.6262 3.6902 16.625H15.3103C15.8708 16.625 16.3782 16.3384 16.6672 15.8587C16.8089 15.625 16.8874 15.3585 16.8949 15.0853C16.9024 14.8122 16.8386 14.5417 16.71 14.3007L10.8999 3.325ZM3.6902 15.0417L9.50024 4.06679L15.3142 15.0417H3.6902Z" fill="#D5844D"/>
</svg>
