<svg width="60" height="60" viewBox="0 0 60 60" fill="none" xmlns="http://www.w3.org/2000/svg">
<path d="M7.50044 32.5H10.0004V50C10.0004 52.7575 12.2429 55 15.0004 55H45.0004C47.7579 55 50.0004 52.7575 50.0004 50V32.5H52.5004C52.9948 32.4999 53.4781 32.3532 53.8891 32.0785C54.3001 31.8038 54.6205 31.4134 54.8096 30.9566C54.9988 30.4999 55.0483 29.9973 54.9519 29.5124C54.8555 29.0275 54.6175 28.5821 54.2679 28.2325L31.7679 5.7325C31.536 5.50013 31.2605 5.31579 30.9572 5.19001C30.6539 5.06424 30.3288 4.9995 30.0004 4.9995C29.6721 4.9995 29.347 5.06424 29.0437 5.19001C28.7404 5.31579 28.4649 5.50013 28.2329 5.7325L5.73294 28.2325C5.38342 28.5821 5.1454 29.0275 5.04899 29.5124C4.95257 29.9973 5.00207 30.4999 5.19125 30.9566C5.38042 31.4134 5.70077 31.8038 6.1118 32.0785C6.52282 32.3532 7.00607 32.4999 7.50044 32.5ZM25.0004 50V37.5H35.0004V50H25.0004ZM30.0004 11.035L45.0004 26.035V37.5L45.0029 50H40.0004V37.5C40.0004 34.7425 37.7579 32.5 35.0004 32.5H25.0004C22.2429 32.5 20.0004 34.7425 20.0004 37.5V50H15.0004V26.035L30.0004 11.035Z" fill="#111111"/>
</svg>
