<svg width="60" height="60" viewBox="0 0 60 60" fill="none" xmlns="http://www.w3.org/2000/svg">
<path d="M7.49999 32.5H9.99999V50C9.99999 52.7575 12.2425 55 15 55H45C47.7575 55 50 52.7575 50 50V32.5H52.5C52.9944 32.4999 53.4776 32.3532 53.8886 32.0785C54.2997 31.8038 54.62 31.4134 54.8092 30.9566C54.9984 30.4999 55.0479 29.9973 54.9514 29.5124C54.855 29.0275 54.617 28.5821 54.2675 28.2325L31.7675 5.7325C31.5355 5.50013 31.26 5.31579 30.9567 5.19001C30.6534 5.06424 30.3283 4.9995 30 4.9995C29.6717 4.9995 29.3465 5.06424 29.0433 5.19001C28.74 5.31579 28.4645 5.50013 28.2325 5.7325L5.73249 28.2325C5.38296 28.5821 5.14495 29.0275 5.04853 29.5124C4.95211 29.9973 5.00162 30.4999 5.19079 30.9566C5.37997 31.4134 5.70031 31.8038 6.11134 32.0785C6.52236 32.3532 7.00561 32.4999 7.49999 32.5ZM25 50V37.5H35V50H25ZM30 11.035L45 26.035V37.5L45.0025 50H40V37.5C40 34.7425 37.7575 32.5 35 32.5H25C22.2425 32.5 20 34.7425 20 37.5V50H15V26.035L30 11.035Z" fill="#111111"/>
</svg>
