<svg width="26" height="26" viewBox="0 0 26 26" fill="none" xmlns="http://www.w3.org/2000/svg">
<g clip-path="url(#clip0_397_136)">
<path d="M12.9999 1.44446C10.7144 1.44446 8.48028 2.12218 6.57997 3.39192C4.67967 4.66166 3.19857 6.46639 2.32396 8.57789C1.44934 10.6894 1.2205 13.0128 1.66638 15.2544C2.11225 17.4959 3.21281 19.555 4.82889 21.171C6.44496 22.7871 8.50396 23.8877 10.7455 24.3335C12.9871 24.7794 15.3105 24.5506 17.422 23.676C19.5335 22.8013 21.3382 21.3202 22.608 19.4199C23.8777 17.5196 24.5555 15.2855 24.5555 13C24.5555 9.93529 23.338 6.99609 21.1709 4.829C19.0038 2.66191 16.0646 1.44446 12.9999 1.44446ZM12.9999 23.1111C11.0001 23.1111 9.04523 22.5181 7.38246 21.4071C5.7197 20.2961 4.42373 18.7169 3.65845 16.8694C2.89316 15.0218 2.69293 12.9888 3.08307 11.0274C3.47321 9.06607 4.4362 7.26444 5.85026 5.85038C7.26433 4.43631 9.06595 3.47332 11.0273 3.08318C12.9887 2.69305 15.0217 2.89328 16.8693 3.65857C18.7168 4.42385 20.296 5.71982 21.407 7.38258C22.518 9.04534 23.111 11.0002 23.111 13C23.111 15.6816 22.0457 18.2534 20.1495 20.1496C18.2533 22.0458 15.6815 23.1111 12.9999 23.1111Z" fill="#111111"/>
<path d="M20.2218 8.73895C20.0865 8.60443 19.9034 8.52893 19.7126 8.52893C19.5218 8.52893 19.3388 8.60443 19.2035 8.73895L11.1868 16.7195L6.85346 12.3862C6.7213 12.2435 6.53786 12.1591 6.3435 12.1517C6.14913 12.1442 5.95978 12.2143 5.81707 12.3464C5.67437 12.4786 5.59002 12.6621 5.58257 12.8564C5.57512 13.0508 5.64519 13.2401 5.77735 13.3828L11.1868 18.7778L20.2218 9.7645C20.2895 9.69736 20.3432 9.61748 20.3799 9.52948C20.4166 9.44147 20.4354 9.34707 20.4354 9.25173C20.4354 9.15638 20.4166 9.06199 20.3799 8.97398C20.3432 8.88597 20.2895 8.80609 20.2218 8.73895Z" fill="#111111"/>
</g>
<defs>
<clipPath id="clip0_397_136">
<rect width="26" height="26" fill="white"/>
</clipPath>
</defs>
</svg>
