<svg width="25" height="25" viewBox="0 0 25 25" fill="none" xmlns="http://www.w3.org/2000/svg">
<g clip-path="url(#clip0_232_551)">
<path d="M12.5003 4.16667C10.8522 4.16667 9.24099 4.65541 7.87058 5.57109C6.50017 6.48677 5.43206 7.78826 4.80133 9.31098C4.1706 10.8337 4.00558 12.5092 4.32712 14.1258C4.64866 15.7423 5.44234 17.2271 6.60777 18.3926C7.77321 19.558 9.25807 20.3517 10.8746 20.6732C12.4911 20.9948 14.1666 20.8297 15.6894 20.199C17.2121 19.5683 18.5136 18.5002 19.4292 17.1298C20.3449 15.7593 20.8337 14.1482 20.8337 12.5C20.8337 10.2899 19.9557 8.17025 18.3929 6.60745C16.8301 5.04465 14.7105 4.16667 12.5003 4.16667ZM12.5003 19.4445C11.1268 19.4445 9.78421 19.0372 8.6422 18.2741C7.50019 17.511 6.61011 16.4265 6.0845 15.1575C5.55889 13.8886 5.42137 12.4923 5.68932 11.1452C5.95727 9.79812 6.61867 8.56074 7.58987 7.58954C8.56106 6.61834 9.79845 5.95695 11.1455 5.689C12.4926 5.42104 13.8889 5.55857 15.1579 6.08418C16.4268 6.60978 17.5114 7.49987 18.2744 8.64188C19.0375 9.78389 19.4448 11.1265 19.4448 12.5C19.4448 13.412 19.2652 14.315 18.9162 15.1575C18.5672 16.0001 18.0556 16.7656 17.4108 17.4105C16.7659 18.0553 16.0004 18.5668 15.1579 18.9158C14.3153 19.2648 13.4123 19.4445 12.5003 19.4445Z" fill="#BB5C54"/>
<path d="M12.5004 13.9375C12.261 13.9375 12.0314 13.8424 11.8621 13.6731C11.6928 13.5038 11.5977 13.2741 11.5977 13.0347V8.86805C11.5977 8.62862 11.6928 8.39899 11.8621 8.22969C12.0314 8.06038 12.261 7.96527 12.5004 7.96527C12.7399 7.96527 12.9695 8.06038 13.1388 8.22969C13.3081 8.39899 13.4032 8.62862 13.4032 8.86805V13.0347C13.4032 13.2741 13.3081 13.5038 13.1388 13.6731C12.9695 13.8424 12.7399 13.9375 12.5004 13.9375Z" fill="#BB5C54"/>
<path d="M12.4655 17.0278C13.0408 17.0278 13.5072 16.5614 13.5072 15.9861C13.5072 15.4108 13.0408 14.9444 12.4655 14.9444C11.8902 14.9444 11.4238 15.4108 11.4238 15.9861C11.4238 16.5614 11.8902 17.0278 12.4655 17.0278Z" fill="#BB5C54"/>
</g>
<defs>
<clipPath id="clip0_232_551">
<rect width="25" height="25" fill="white"/>
</clipPath>
</defs>
</svg>
