<svg width="20" height="20" viewBox="0 0 20 20" fill="none" xmlns="http://www.w3.org/2000/svg">
<g clip-path="url(#clip0_232_573)">
<path d="M10.0002 1.11111C8.24217 1.11111 6.52359 1.63244 5.06182 2.60916C3.60005 3.58589 2.46074 4.97414 1.78796 6.59837C1.11518 8.22261 0.93915 10.0099 1.28213 11.7341C1.62511 13.4584 2.47169 15.0423 3.71483 16.2854C4.95796 17.5285 6.54181 18.3751 8.26609 18.7181C9.99036 19.0611 11.7776 18.885 13.4019 18.2123C15.0261 17.5395 16.4143 16.4002 17.3911 14.9384C18.3678 13.4766 18.8891 11.7581 18.8891 10C18.8891 7.64252 17.9526 5.3816 16.2856 3.71461C14.6186 2.04762 12.3577 1.11111 10.0002 1.11111ZM10.0002 17.7778C8.46192 17.7778 6.95817 17.3216 5.67912 16.467C4.40007 15.6124 3.40317 14.3976 2.81449 12.9764C2.22581 11.5552 2.07178 9.99138 2.37189 8.48263C2.672 6.97389 3.41276 5.58803 4.5005 4.50028C5.58824 3.41254 6.97411 2.67178 8.48285 2.37167C9.99159 2.07157 11.5554 2.22559 12.9766 2.81427C14.3979 3.40296 15.6126 4.39985 16.4672 5.6789C17.3218 6.95795 17.778 8.4617 17.778 10C17.778 12.0628 16.9586 14.0411 15.4999 15.4997C14.0413 16.9583 12.063 17.7778 10.0002 17.7778Z" fill="#111111"/>
<path d="M15.5553 6.72222C15.4512 6.61875 15.3104 6.56067 15.1636 6.56067C15.0169 6.56067 14.8761 6.61875 14.772 6.72222L8.6053 12.8611L5.27197 9.52778C5.1703 9.41801 5.02919 9.35312 4.87969 9.34739C4.73018 9.34166 4.58452 9.39555 4.47475 9.49722C4.36498 9.59889 4.30009 9.74 4.29436 9.8895C4.28863 10.039 4.34253 10.1847 4.44419 10.2944L8.6053 14.4444L15.5553 7.51111C15.6074 7.45946 15.6487 7.39802 15.6769 7.33032C15.7051 7.26262 15.7196 7.19001 15.7196 7.11667C15.7196 7.04333 15.7051 6.97071 15.6769 6.90301C15.6487 6.83531 15.6074 6.77387 15.5553 6.72222Z" fill="#111111"/>
</g>
<defs>
<clipPath id="clip0_232_573">
<rect width="20" height="20" fill="white"/>
</clipPath>
</defs>
</svg>
