<svg width="131" height="24" viewBox="0 0 131 24" fill="none" xmlns="http://www.w3.org/2000/svg">
<rect x="0.658203" y="0.499878" width="130.268" height="23" rx="10" fill="white"/>
<rect x="1.1582" y="0.999878" width="129.268" height="22" rx="9.5" stroke="black" stroke-opacity="0.5"/>
<path d="M20.6649 14.72C20.7974 14.8622 20.8695 15.0502 20.8661 15.2445C20.8627 15.4388 20.784 15.6242 20.6465 15.7616C20.5091 15.899 20.3237 15.9777 20.1294 15.9812C19.9351 15.9846 19.7471 15.9125 19.6049 15.78L16.3549 12.53C16.2145 12.3894 16.1356 12.1988 16.1356 12C16.1356 11.8012 16.2145 11.6106 16.3549 11.47L19.6049 8.22C19.7471 8.08752 19.9351 8.0154 20.1294 8.01882C20.3237 8.02225 20.5091 8.10097 20.6465 8.23838C20.784 8.37579 20.8627 8.56118 20.8661 8.75548C20.8695 8.94978 20.7974 9.13782 20.6649 9.28L17.9449 12L20.6649 14.72ZM13.3849 8C13.186 8 12.9952 8.07902 12.8546 8.21967C12.7139 8.36032 12.6349 8.55109 12.6349 8.75V15.25C12.6349 15.4489 12.7139 15.6397 12.8546 15.7803C12.9952 15.921 13.186 16 13.3849 16C13.5838 16 13.7746 15.921 13.9152 15.7803C14.0559 15.6397 14.1349 15.4489 14.1349 15.25V8.75C14.1349 8.336 13.7989 8 13.3849 8Z" fill="#111111"/>
<path d="M113.299 9.28C113.166 9.13783 113.094 8.94978 113.098 8.75548C113.101 8.56118 113.18 8.37579 113.317 8.23838C113.455 8.10097 113.64 8.02225 113.834 8.01883C114.029 8.0154 114.217 8.08752 114.359 8.22L117.609 11.47C117.749 11.6106 117.828 11.8012 117.828 12C117.828 12.1988 117.749 12.3894 117.609 12.53L114.359 15.78C114.217 15.9125 114.029 15.9846 113.834 15.9812C113.64 15.9777 113.455 15.899 113.317 15.7616C113.18 15.6242 113.101 15.4388 113.098 15.2445C113.094 15.0502 113.166 14.8622 113.299 14.72L116.019 12L113.299 9.28ZM120.579 16C120.778 16 120.969 15.921 121.109 15.7803C121.25 15.6397 121.329 15.4489 121.329 15.25V8.75C121.329 8.55109 121.25 8.36032 121.109 8.21967C120.969 8.07902 120.778 8 120.579 8C120.38 8 120.189 8.07902 120.049 8.21967C119.908 8.36032 119.829 8.55109 119.829 8.75V15.25C119.829 15.664 120.165 16 120.579 16Z" fill="#111111"/>
</svg>
