<svg width="54" height="54" viewBox="0 0 54 54" fill="none" xmlns="http://www.w3.org/2000/svg">
<path d="M44.1 47.25L29.925 33.075C28.8 33.975 27.5062 34.6875 26.0437 35.2125C24.5812 35.7375 23.025 36 21.375 36C17.2875 36 13.8285 34.584 10.998 31.752C8.1675 28.92 6.7515 25.461 6.75 21.375C6.75 17.2875 8.166 13.8285 10.998 10.998C13.83 8.1675 17.289 6.7515 21.375 6.75C25.4625 6.75 28.9215 8.166 31.752 10.998C34.5825 13.83 35.9985 17.289 36 21.375C36 23.025 35.7375 24.5812 35.2125 26.0437C34.6875 27.5062 33.975 28.8 33.075 29.925L47.25 44.1L44.1 47.25ZM21.375 31.5C24.1875 31.5 26.5785 30.5153 28.548 28.5458C30.5175 26.5763 31.5015 24.186 31.5 21.375C31.5 18.5625 30.5153 16.1715 28.5458 14.202C26.5763 12.2325 24.186 11.2485 21.375 11.25C18.5625 11.25 16.1715 12.2348 14.202 14.2043C12.2325 16.1738 11.2485 18.564 11.25 21.375C11.25 24.1875 12.2348 26.5785 14.2043 28.548C16.1738 30.5175 18.564 31.5015 21.375 31.5Z" fill="white"/>
</svg>
